<?xml version="1.0" standalone="no"?><!-- Generator: Adobe Fireworks CS6, Export SVG Extension by Aaron Beall (http://fireworks.abeall.com) . Version: 0.6.1  --><!DOCTYPE svg PUBLIC "-//W3C//DTD SVG 1.1//EN" "http://www.w3.org/Graphics/SVG/1.1/DTD/svg11.dtd"><svg id="Untitled-%u30DA%u30FC%u30B8%201" viewBox="0 0 229 226" style="background-color:#ffffff" version="1.1"	xmlns="http://www.w3.org/2000/svg" xmlns:xlink="http://www.w3.org/1999/xlink" xml:space="preserve"	x="0px" y="0px" width="229px" height="226px">	<g id="%u30EC%u30A4%u30E4%u30FC%201">		<g>			<path d="M 35.6589 6.7226 C 36.2607 6.3896 36.9637 6.2913 37.4981 5.8241 C 37.396 5.3214 35.1385 0.9939 34.7353 0.5907 C 34.097 -0.0476 30.7852 1.1812 29.9486 1.413 C 27.8406 2.0427 25.732 2.4714 23.6238 3.0342 C 22.3188 3.3985 20.6129 4.0964 19.1733 4.2594 C 18.035 4.3897 14.6509 3.9437 13.9498 4.6448 C 13.5826 5.0121 11.4601 11.7037 11.6286 12.0057 C 12.568 12.5445 14.3751 12.0813 15.5483 12.3864 C 15.2157 13.1222 14.5813 13.7565 14.0137 14.3241 C 12.5781 15.7597 10.8397 16.759 9.4375 18.1612 C 7.4009 20.1978 5.7339 22.604 3.6639 24.6739 C 2.5955 25.7423 1.2582 26.4749 0.2232 27.5099 C -0.311 28.0441 0.2263 28.5147 0.6295 28.9178 C 1.2343 29.5226 3.9876 31.7417 4.7584 31.9116 C 6.2667 32.2847 14.0449 24.2377 15.1467 23.1359 L 18.3518 19.9308 C 20.6555 17.6272 22.6234 15.0545 24.8937 12.7842 C 25.6949 11.9829 26.5966 11.1485 27.4651 10.4144 C 28.2668 9.7471 33.1165 7.6524 33.9545 7.8894 C 34.4282 9.4315 31.153 11.6317 32.9336 13.4123 C 34.4455 14.9242 36.3578 15.9685 37.8361 17.4467 C 38.8104 18.4211 36.2726 20.8245 35.5381 21.559 C 35.0039 22.0932 34.2686 22.5597 33.7008 23.0603 C 31.5296 24.8955 31.3935 24.2253 29.4113 22.243 C 27.765 20.5968 26.5194 18.5499 24.8731 16.9036 C 24.5372 16.5676 24.201 16.1647 23.7325 16.2972 C 22.9963 16.4958 20.2235 18.731 19.6226 19.332 C 19.4223 19.5323 19.0884 19.8662 18.9889 20.1673 C 18.7569 20.9369 21.2428 23.3561 21.814 23.9272 C 22.9563 25.0695 24.4325 25.878 25.6084 27.0539 C 26.0115 27.457 27.187 28.499 27.0552 29.1684 C 26.9235 29.9048 23.9527 33.0771 23.2182 33.8116 C 20.9479 36.0819 20.7835 37.0527 18.1315 35.0683 C 17.4266 34.5637 16.6547 34.0589 16.0163 33.4206 C 15.0756 32.4799 14.5021 31.1719 13.5614 30.2312 C 12.3855 29.0553 9.7488 31.9607 8.9141 32.7954 C 7.8124 33.8972 8.7187 34.5364 9.5922 35.4099 C 11.44 37.2577 13.3544 38.9718 15.1689 40.8531 C 16.2104 41.8946 16.9512 43.1696 17.9928 44.2111 C 19.1015 45.3198 20.3769 46.1946 21.4856 47.3033 C 23.2663 49.084 24.8798 50.9646 26.6604 52.7452 C 27.4332 53.518 27.8036 54.1555 28.7718 53.1872 C 29.306 52.6531 31.3753 50.3821 31.4066 49.6789 C 31.47 48.5404 25.4926 43.4979 25.488 42.0242 C 25.4855 41.2204 28.8243 37.9487 29.5255 37.2476 C 30.26 36.5131 32.0271 34.0068 33.2366 35.2163 C 34.3117 36.2914 35.1196 37.5666 36.1611 38.6082 C 39.4872 41.9343 39.8234 42.3372 43.0953 39.0654 C 43.763 38.3976 45.0327 37.4639 44.0584 36.4895 C 42.9833 35.4144 38.08 31.1121 38.0758 29.7724 C 38.1073 29.1362 40.3089 26.3298 40.8431 25.7956 C 45.7843 20.8544 45.154 22.7614 51.2273 26.3641 C 51.8312 26.7009 52.7375 27.3401 53.4075 27.4092 C 53.5079 27.376 53.608 27.2759 53.6748 27.2091 C 54.3425 26.5414 54.8599 20.6485 54.1543 19.943 C 51.097 16.8856 46.5713 15.4982 42.9808 13.31 C 40.4977 11.8285 37.979 9.6437 35.9296 7.5942 C 35.7616 7.4262 35.627 7.2249 35.4924 7.0235 L 35.6589 6.7226 L 35.6589 6.7226 Z" fill="#ed462f"/>			<path d="M 82.752 64.4994 C 82.2817 64.0291 81.106 62.9201 81.1039 62.2503 C 81.1702 62.0496 81.3035 61.849 81.4371 61.7155 C 82.2384 60.9142 83.174 60.2473 83.9753 59.446 C 87.4475 55.9738 87.1132 56.1737 83.4511 52.5116 C 83.216 52.2765 82.9472 52.0077 82.612 51.9396 C 81.8748 51.8034 79.3034 54.1732 78.7024 54.7741 C 78.0013 55.4752 77.4682 56.3443 76.7671 57.0455 C 76.3664 57.4461 76.0324 57.713 75.4289 57.5101 C 74.3227 57.2052 68.7489 52.6998 67.7746 51.7255 C 67.2706 51.2216 66.6997 50.7174 67.3674 50.0497 C 68.97 48.4471 70.9085 47.1805 72.5445 45.5446 C 73.7464 44.3427 69.4457 39.9752 68.5386 39.0681 C 68.0346 38.5641 67.4981 38.3615 66.9306 38.9291 C 64.9941 40.8655 63.5955 43.4065 61.6591 45.3429 C 60.7242 46.2777 59.6815 44.8343 58.9423 44.0952 C 58.2032 43.356 55.3455 39.8974 54.408 39.9614 C 54.0396 39.9938 53.7056 40.2606 53.4385 40.5277 C 52.4703 41.4959 49.4317 44.4002 50.742 45.7105 C 52.2202 47.1887 53.9992 48.4335 55.4775 49.9118 C 56.3846 50.8189 56.1837 50.8183 55.3824 51.6196 C 54.2139 52.7881 52.676 53.654 51.5074 54.8226 C 49.4375 56.8925 44.8688 63.1411 44.9116 66.122 C 44.9547 69.1698 49.0565 74.2065 51.1396 76.2895 C 52.9538 78.1038 55.0018 79.6843 56.9162 81.3984 C 58.1588 82.5075 59.3018 83.8508 60.678 84.8264 C 61.4165 85.3646 61.9851 85.1319 62.5861 84.5309 C 63.354 83.7631 67.1594 79.756 66.1515 78.7481 C 65.0764 77.673 62.8974 77.0298 61.5884 76.1214 C 60.2122 75.1458 58.6335 73.7007 57.424 72.4912 C 56.4497 71.5169 52.8857 67.0848 52.7147 65.9791 C 52.6122 65.3424 54.5123 62.5016 55.0465 61.9674 C 56.0815 60.9324 57.3181 60.099 58.4202 59.1312 C 58.9213 58.6974 61.1239 56.226 62.1285 56.1621 C 63.6353 56.0664 69.2771 60.9069 70.453 62.0828 C 70.8562 62.486 71.159 62.9223 70.6582 63.4231 C 70.1574 63.9239 68.6879 65.259 67.9843 65.1563 C 66.2755 64.9165 64.5215 60.959 62.752 62.7285 C 58.4785 67.0019 59.0463 66.5013 63.2459 70.701 C 64.5898 72.0449 68.9486 73.5992 70.4176 72.1302 C 71.1855 71.3623 74.8561 67.0869 76.0629 67.4256 C 77.806 67.9 80.9375 73.235 82.54 71.6325 C 83.2411 70.9313 86.2449 67.5916 85.3041 66.6509 C 84.5314 65.8782 83.5247 65.2722 82.752 64.4994 L 82.752 64.4994 Z" fill="#ed462f"/>			<path d="M 96.4371 74.3117 C 95.6693 75.0796 92.4639 78.2177 93.4718 79.2256 C 97.0668 82.8205 102.0969 84.8459 105.6918 88.4408 C 106.0277 88.7767 106.3637 89.1127 106.5659 89.5152 C 105.5626 89.981 104.3235 90.0106 103.286 90.2417 C 99.069 91.1662 97.0944 91.5954 94.0228 94.667 C 93.0546 95.6352 92.5219 96.6383 91.8222 97.8083 C 88.2915 103.9596 88.8761 108.8177 92.1107 114.9904 C 92.6499 116.0638 94.334 119.0833 95.0732 119.8225 C 96.2155 120.9648 101.2302 118.1003 101.9981 117.3324 C 102.1316 117.1988 102.265 116.9983 102.3647 116.7642 C 102.7634 115.7607 96.9786 108.0394 97.3685 104.2226 C 97.4334 103.553 97.9655 102.349 98.2649 101.7136 C 98.5643 101.0782 99.0964 99.8741 99.5638 99.4067 C 100.1982 98.7724 102.5732 97.8756 103.4763 97.51 C 105.1155 96.8788 107.5241 96.0156 109.2993 96.0547 C 113.5865 96.1352 117.4812 99.2286 120.337 102.0844 C 121.2441 102.9915 121.6475 103.4617 122.7159 102.3933 C 123.6507 101.4585 126.7573 98.8894 125.4135 97.5455 C 122.8936 95.0257 118.5934 90.7923 115.7738 88.7739 C 114.5317 87.8657 112.9546 86.8895 111.8794 85.8144 C 110.4348 84.3697 109.0233 82.8247 107.5786 81.38 C 106.4363 80.2377 104.6588 79.4618 103.3495 78.4864 C 101.5032 77.1074 100.057 75.1939 98.1773 73.8483 C 97.5395 73.4109 96.9046 73.8443 96.4371 74.3117 L 96.4371 74.3117 Z" fill="#ed462f"/>			<path d="M 139.7923 146.9135 C 139.692 146.9467 139.5918 147.0469 139.6256 147.1474 C 139.9618 147.5504 140.2978 147.8864 140.6673 148.256 C 141.0705 148.6591 141.4739 149.1293 141.9772 149.4323 C 143.1854 150.2399 149.1178 151.6317 150.5575 151.4688 C 151.3611 151.4043 152.1306 151.1723 152.9338 150.9738 C 153.3019 150.8745 154.3394 150.6434 154.6065 150.3763 C 155.341 149.6418 153.4484 144.2102 152.7093 143.471 C 151.1638 141.9256 148.9328 146.038 144.7331 141.8383 C 144.162 141.2672 142.7498 139.5212 142.5132 138.8171 C 140.7216 133.5533 143.7207 128.74 138.8491 123.8684 C 135.8253 120.8446 128.1822 118.6101 124.2014 120.1047 C 123.7999 120.2374 123.1641 120.4029 122.8636 120.7034 C 122.1959 121.3711 123.8164 125.4622 124.4211 126.0669 C 125.2274 126.8733 130.9862 126.2885 132.6324 127.9348 C 136.3617 131.6641 134.2038 137.7193 135.9261 142.246 C 136.2302 143.0843 136.2657 143.7207 136.9376 144.3927 C 137.7776 145.2326 138.8848 145.8724 139.8249 146.6122 L 139.7923 146.9135 L 139.7923 146.9135 Z" fill="#ed462f"/>			<path d="M 173.4203 150.961 C 172.4794 149.9533 171.671 148.4771 170.4023 149.7458 C 169.8013 150.3468 167.5314 152.751 167.534 153.5548 C 167.5354 154.0237 167.9384 154.3599 168.2408 154.6623 C 168.9463 155.3678 171.2622 156.9492 170.3608 157.8506 C 166.2542 161.9572 156.7115 162.6975 155.2424 164.1665 C 154.5079 164.901 155.6284 169.7608 156.334 170.4664 C 156.7708 170.9031 167.8155 168.5265 168.9857 167.8938 C 170.7913 166.9617 174.804 164.9648 176.6445 164.4682 C 179.3885 163.7401 182.8894 169.3777 184.926 167.3411 C 185.4935 166.7735 188.5993 163.9365 187.793 163.1302 C 186.9195 162.2566 185.5122 162.0513 184.6722 161.2113 C 184.3699 160.909 184.5702 160.7086 184.8039 160.4749 C 185.7721 159.5067 187.5464 159.2778 188.548 158.2763 C 189.5163 157.308 186.1231 153.9817 185.4176 153.2762 C 183.0994 150.958 179.6308 155.5689 177.7523 154.6252 C 176.8466 154.187 175.8057 153.3464 175.1338 152.6745 L 173.4203 150.961 L 173.4203 150.961 ZM 190.1985 182.5628 C 190.9377 183.302 195.1532 181.9086 195.821 181.2409 C 197.0896 179.9722 193.6767 170.3493 192.4336 169.1063 C 191.6945 168.3671 188.2819 169.4951 187.6476 170.1294 C 186.6793 171.0977 189.0898 181.4541 190.1985 182.5628 L 190.1985 182.5628 ZM 185.4495 174.0745 C 184.8112 173.4362 181.5858 170.2108 180.7178 171.0789 C 179.0818 172.7148 178.1514 175.0563 176.5489 176.6589 C 174.9797 178.2281 167.6912 171.6073 164.244 172.3668 C 163.3738 172.565 160.9332 173.9305 160.2989 174.5648 C 159.7981 175.0656 159.4657 175.8683 159.1663 176.5038 C 158.8335 177.1725 158.467 177.8077 158.2684 178.5439 C 157.6068 181.1542 159.9319 185.6828 161.7798 187.5307 C 162.8213 188.5722 167.4833 190.6968 168.9574 190.8354 C 170.1299 190.9396 173.6414 189.3096 174.1118 189.7799 C 174.7837 190.4519 173.8934 194.9035 174.6326 195.6426 C 175.2037 196.2137 180.3245 195.1246 180.9255 194.5237 C 181.4263 194.0229 181.2889 192.9507 181.2534 192.3142 C 181.1115 189.7684 178.851 184.5032 178.949 183.7332 C 178.9816 183.4318 179.1145 183.0973 179.3148 182.897 C 180.0827 182.1291 180.985 181.4956 181.7529 180.7277 C 182.6543 179.8263 186.1257 176.0862 186.0219 175.0476 C 185.9873 174.6791 185.7183 174.3433 185.4495 174.0745 L 185.4495 174.0745 ZM 166.0197 183.2236 C 165.4821 182.6861 164.9685 179.1008 165.3015 178.499 C 165.9703 178.1662 168.9558 179.6827 169.4934 180.2203 C 169.9973 180.7243 172.0478 183.1086 171.4468 183.7096 C 169.7775 185.3789 167.5652 184.7691 166.0197 183.2236 L 166.0197 183.2236 Z" fill="#ed462f"/>			<path d="M 214.0216 221.1428 C 213.9212 221.1759 213.8211 221.2761 213.8549 221.3767 C 214.1911 221.7797 214.527 222.1156 214.8966 222.4852 C 215.2998 222.8884 215.7032 223.3585 216.2065 223.6615 C 217.4147 224.4691 223.3471 225.8609 224.7867 225.698 C 225.5903 225.6335 226.3599 225.4015 227.1631 225.2031 C 227.5312 225.1038 228.5687 224.8726 228.8358 224.6055 C 229.5703 223.871 227.6777 218.4394 226.9385 217.7003 C 225.3931 216.1548 223.162 220.2673 218.9624 216.0676 C 218.3913 215.4965 216.9791 213.7505 216.7425 213.0464 C 214.9508 207.7826 217.95 202.9692 213.0783 198.0976 C 210.0546 195.0739 202.4115 192.8394 198.4307 194.334 C 198.0292 194.4667 197.3934 194.6322 197.0929 194.9326 C 196.4252 195.6004 198.0456 199.6914 198.6504 200.2962 C 199.4567 201.1025 205.2154 200.5178 206.8617 202.164 C 210.591 205.8933 208.4331 211.9485 210.1554 216.4753 C 210.4595 217.3136 210.4949 217.95 211.1669 218.6219 C 212.0068 219.4619 213.1141 220.1017 214.0542 220.8415 L 214.0216 221.1428 L 214.0216 221.1428 Z" fill="#ed462f"/>		</g>	</g></svg>