<?xml version="1.0" standalone="no"?><!-- Generator: Adobe Fireworks CS6, Export SVG Extension by Aaron Beall (http://fireworks.abeall.com) . Version: 0.6.1  --><!DOCTYPE svg PUBLIC "-//W3C//DTD SVG 1.1//EN" "http://www.w3.org/Graphics/SVG/1.1/DTD/svg11.dtd"><svg id="Untitled-%u30DA%u30FC%u30B8%201" viewBox="0 0 144 26" style="background-color:#ffffff00" version="1.1"	xmlns="http://www.w3.org/2000/svg" xmlns:xlink="http://www.w3.org/1999/xlink" xml:space="preserve"	x="0px" y="0px" width="144px" height="26px">	<g id="%u30EC%u30A4%u30E4%u30FC%201">		<g>			<path d="M 14.7182 21.8835 L 8.275 2.6286 C 7.7381 1.0137 7.4223 0.089 5.5588 0.089 C 3.5058 0.089 3.2532 1.7901 3.1268 2.6286 L 0.0947 23.4053 C 0.0316 23.9022 0 24.0575 0 24.3059 C 0 25.1755 0.8212 25.5482 1.6108 25.5482 C 2.8426 25.5482 2.9689 24.8028 3.0952 23.8712 L 5.8746 4.0114 L 12.4441 23.7431 C 12.76 24.6768 13.1074 25.5482 14.7498 25.5482 C 16.3921 25.5482 16.708 24.5523 16.9922 23.7431 L 23.5617 4.0114 L 26.3411 23.8676 C 26.4675 24.8013 26.5938 25.5482 27.8256 25.5482 C 28.5836 25.5482 29.4302 25.1747 29.4302 24.3033 C 29.4302 24.0544 29.4048 23.8987 29.3416 23.4008 L 26.3095 2.5698 C 26.1832 1.6609 25.9305 0 23.7197 0 C 22.0141 0 21.6667 1.0655 21.1613 2.5698 L 14.7182 21.8835 L 14.7182 21.8835 Z" fill="#ff3f00"/>			<path d="M 39.3246 18.392 L 50.5923 18.392 L 52.9279 24.2064 C 53.2436 25.0115 53.433 25.5482 54.4114 25.5482 C 55.1058 25.5482 56.1183 25.1606 56.1183 24.3257 C 56.1183 23.9977 55.9895 23.6697 55.8001 23.1926 L 47.4677 2.0767 C 47.152 1.2867 46.6786 0.089 44.9427 0.089 C 43.2383 0.089 42.7964 1.2551 42.4808 2.0767 L 34.1168 23.1926 C 33.8958 23.6995 33.8012 23.9977 33.8012 24.3257 C 33.8012 25.1307 34.748 25.5482 35.5371 25.5482 C 36.4524 25.5482 36.7049 25.0115 37.0205 24.2064 L 39.3246 18.392 L 39.3246 18.392 ZM 40.303 15.7909 L 44.9742 3.467 L 49.6139 15.7909 L 40.303 15.7909 L 40.303 15.7909 Z" fill="#ff3f00"/>			<path d="M 63.2889 11.2002 L 63.2889 1.5106 C 63.2889 0.5479 62.8165 0.089 61.9552 0.089 C 61.5384 0.089 60.6215 0.2062 60.6215 1.5106 L 60.6215 24.1196 C 60.6215 25.1444 61.1772 25.5482 61.9829 25.5482 C 62.2886 25.5482 63.2889 25.5482 63.2889 24.1196 L 63.2889 12.1629 L 74.2132 24.5544 C 74.7141 25.1134 75.0897 25.5482 75.6844 25.5482 C 76.3418 25.5482 77.3121 25.0202 77.3121 24.1196 C 77.3121 23.7159 77.093 23.4363 76.5609 22.8463 L 66.4191 11.6971 L 75.747 2.4423 C 75.9035 2.287 76.2792 1.8522 76.2792 1.4485 C 76.2792 0.641 75.434 0.089 74.7141 0.089 C 74.2445 0.089 74.1506 0.1441 73.2742 1.0447 L 63.2889 11.2002 L 63.2889 11.2002 Z" fill="#ff3f00"/>			<path d="M 86.7923 18.392 L 98.06 18.392 L 100.3956 24.2064 C 100.7113 25.0115 100.9007 25.5482 101.8791 25.5482 C 102.5734 25.5482 103.586 25.1606 103.586 24.3257 C 103.586 23.9977 103.4572 23.6697 103.2678 23.1926 L 94.9354 2.0767 C 94.6197 1.2867 94.1463 0.089 92.4104 0.089 C 90.706 0.089 90.2641 1.2551 89.9485 2.0767 L 81.5845 23.1926 C 81.3635 23.6995 81.2688 23.9977 81.2688 24.3257 C 81.2688 25.1307 82.2157 25.5482 83.0048 25.5482 C 83.9201 25.5482 84.1726 25.0115 84.4882 24.2064 L 86.7923 18.392 L 86.7923 18.392 ZM 87.7707 15.7909 L 92.4419 3.467 L 97.0816 15.7909 L 87.7707 15.7909 L 87.7707 15.7909 Z" fill="#ff3f00"/>			<path d="M 107.9315 21.5697 C 107.0487 21.5697 106.6105 22.3564 106.6105 23.0157 C 106.6105 23.7742 107.1426 24.1079 107.6536 24.3506 C 109.8486 25.5035 112.4476 25.6249 113.7423 25.6249 C 119.4016 25.6249 122.9578 23.0461 122.9578 18.3913 C 122.9578 13.5135 119.3276 12.1918 115.7027 11.1219 C 112.7436 10.2408 110.1543 9.4855 110.1543 6.7791 C 110.1543 4.8281 111.8558 2.6829 115.5917 2.6829 C 117.4412 2.6829 118.6618 3.0972 119.2537 3.2861 C 120.2524 3.6322 120.3459 3.6637 120.5682 3.6637 C 121.2073 3.6637 121.6796 2.9714 121.6796 2.2278 C 121.6796 1.712 121.4851 1.2569 120.8739 0.9535 C 120.596 0.8018 118.4029 0.0123 115.5547 0.0123 C 109.932 0.0123 107.4869 3.1917 107.4869 6.905 C 107.4869 11.3107 110.8201 12.6639 114.4081 13.7339 C 117.2932 14.5835 120.2904 15.4961 120.2904 18.5801 C 120.2904 21.6326 117.0343 22.9543 113.5943 22.9543 C 111.5969 22.9543 109.9042 22.5138 108.8762 21.9788 C 108.3483 21.6956 108.126 21.5697 107.9315 21.5697 L 107.9315 21.5697 Z" fill="#ff3f00"/>			<path d="M 131.3227 11.4833 L 131.3227 5.268 C 131.3227 4.3591 131.6671 4.1839 132.4809 4.1839 L 142.1845 4.1839 C 143.0922 4.1839 143.5618 3.6984 143.5618 2.8186 C 143.5618 2.3332 143.374 1.5133 142.1845 1.5133 L 131.5418 1.5133 C 128.6553 1.5133 128.6553 3.7288 128.6553 4.8282 L 128.6553 22.2235 C 128.6553 23.3495 128.6553 25.6249 131.5418 25.6249 L 142.6227 25.6249 C 143.5305 25.6249 144 25.1698 144 24.29 C 144 23.8955 143.9061 22.9543 142.6227 22.9543 L 132.4809 22.9543 C 131.6671 22.9543 131.3227 22.7637 131.3227 21.7787 L 131.3227 14.1539 L 141.1828 14.1539 C 142.028 14.1539 142.5288 13.688 142.5288 12.7874 C 142.5288 12.4458 142.4349 11.4833 141.1828 11.4833 L 131.3227 11.4833 L 131.3227 11.4833 Z" fill="#ff3f00"/>		</g>	</g></svg>