<?xml version="1.0" standalone="no"?><!-- Generator: Adobe Fireworks CS6, Export SVG Extension by Aaron Beall (http://fireworks.abeall.com) . Version: 0.6.1  --><!DOCTYPE svg PUBLIC "-//W3C//DTD SVG 1.1//EN" "http://www.w3.org/Graphics/SVG/1.1/DTD/svg11.dtd"><svg id="logo2.fw-%u30DA%u30FC%u30B8%201" viewBox="0 0 306 122" style="background-color:#ffffff00" version="1.1"	xmlns="http://www.w3.org/2000/svg" xmlns:xlink="http://www.w3.org/1999/xlink" xml:space="preserve"	x="0px" y="0px" width="306px" height="122px">	<g id="%u30EC%u30A4%u30E4%u30FC%201">		<g>			<path d="M 18.2118 38.7442 L 10.3579 15.324 C 9.7034 13.3597 9.3184 12.235 7.0469 12.235 C 4.5444 12.235 4.2364 14.3041 4.0824 15.324 L 0.3865 40.5952 C 0.3095 41.1996 0.271 41.3884 0.271 41.6906 C 0.271 42.7483 1.2719 43.2016 2.2344 43.2016 C 3.7359 43.2016 3.8899 42.295 4.0439 41.1618 L 7.4319 17.0059 L 15.4399 41.0061 C 15.8249 42.1417 16.2484 43.2016 18.2503 43.2016 C 20.2523 43.2016 20.6373 41.9903 20.9838 41.0061 L 28.9918 17.0059 L 32.3798 41.1575 C 32.5338 42.2931 32.6878 43.2016 34.1893 43.2016 C 35.1133 43.2016 36.1452 42.7474 36.1452 41.6875 C 36.1452 41.3846 36.1142 41.1954 36.0372 40.5897 L 32.3413 15.2525 C 32.1873 14.147 31.8793 12.1268 29.1843 12.1268 C 27.1053 12.1268 26.6818 13.4228 26.0658 15.2525 L 18.2118 38.7442 L 18.2118 38.7442 Z" fill="#ff3f00"/>			<path d="M 48.2061 34.4974 L 61.9411 34.4974 L 64.7881 41.5696 C 65.1728 42.5488 65.4037 43.2016 66.5963 43.2016 C 67.4427 43.2016 68.677 42.7301 68.677 41.7146 C 68.677 41.3157 68.52 40.9167 68.2892 40.3365 L 58.1322 14.6526 C 57.7475 13.6917 57.1704 12.235 55.0543 12.235 C 52.9768 12.235 52.4382 13.6533 52.0534 14.6526 L 41.858 40.3365 C 41.5887 40.953 41.4733 41.3157 41.4733 41.7146 C 41.4733 42.6939 42.6275 43.2016 43.5893 43.2016 C 44.705 43.2016 45.0128 42.5488 45.3975 41.5696 L 48.2061 34.4974 L 48.2061 34.4974 ZM 49.3988 31.3336 L 55.0928 16.3438 L 60.7484 31.3336 L 49.3988 31.3336 L 49.3988 31.3336 Z" fill="#ff3f00"/>			<path d="M 77.4176 25.7498 L 77.4176 13.9641 C 77.4176 12.7931 76.8418 12.235 75.7919 12.235 C 75.2838 12.235 74.1662 12.3776 74.1662 13.9641 L 74.1662 41.464 C 74.1662 42.7105 74.8435 43.2016 75.8258 43.2016 C 76.1983 43.2016 77.4176 43.2016 77.4176 41.464 L 77.4176 26.9208 L 90.734 41.9928 C 91.3445 42.6728 91.8024 43.2016 92.5273 43.2016 C 93.3286 43.2016 94.5114 42.5594 94.5114 41.464 C 94.5114 40.9729 94.2443 40.6329 93.5957 39.9152 L 81.2332 26.3542 L 92.6036 15.0974 C 92.7944 14.9085 93.2523 14.3796 93.2523 13.8886 C 93.2523 12.9064 92.2221 12.235 91.3445 12.235 C 90.7722 12.235 90.6577 12.302 89.5893 13.3975 L 77.4176 25.7498 L 77.4176 25.7498 Z" fill="#ff3f00"/>			<path d="M 106.0674 34.4974 L 119.8023 34.4974 L 122.6494 41.5696 C 123.0341 42.5488 123.2649 43.2016 124.4576 43.2016 C 125.304 43.2016 126.5383 42.7301 126.5383 41.7146 C 126.5383 41.3157 126.3813 40.9167 126.1504 40.3365 L 115.9935 14.6526 C 115.6087 13.6917 115.0316 12.235 112.9156 12.235 C 110.8381 12.235 110.2994 13.6533 109.9147 14.6526 L 99.7193 40.3365 C 99.45 40.953 99.3345 41.3157 99.3345 41.7146 C 99.3345 42.6939 100.4887 43.2016 101.4506 43.2016 C 102.5663 43.2016 102.8741 42.5488 103.2588 41.5696 L 106.0674 34.4974 L 106.0674 34.4974 ZM 107.26 31.3336 L 112.9541 16.3438 L 118.6097 31.3336 L 107.26 31.3336 L 107.26 31.3336 Z" fill="#ff3f00"/>			<path d="M 131.8352 38.3625 C 130.7592 38.3625 130.225 39.3194 130.225 40.1213 C 130.225 41.0439 130.8736 41.4498 131.4966 41.745 C 134.1722 43.1473 137.3403 43.2949 138.9184 43.2949 C 145.8169 43.2949 150.1517 40.1582 150.1517 34.4965 C 150.1517 28.5636 145.7267 26.956 141.3081 25.6546 C 137.701 24.5828 134.5448 23.6642 134.5448 20.3724 C 134.5448 17.9992 136.6189 15.39 141.1728 15.39 C 143.4272 15.39 144.9151 15.894 145.6366 16.1237 C 146.8539 16.5447 146.968 16.583 147.239 16.583 C 148.018 16.583 148.5937 15.7409 148.5937 14.8365 C 148.5937 14.2091 148.3566 13.6556 147.6115 13.2866 C 147.2728 13.1021 144.5995 12.1417 141.1277 12.1417 C 134.2738 12.1417 131.2933 16.0088 131.2933 20.5255 C 131.2933 25.8842 135.3564 27.5302 139.73 28.8316 C 143.2469 29.865 146.9003 30.9751 146.9003 34.7262 C 146.9003 38.439 142.9312 40.0467 138.738 40.0467 C 136.3033 40.0467 134.24 39.5108 132.9868 38.8601 C 132.3433 38.5156 132.0723 38.3625 131.8352 38.3625 L 131.8352 38.3625 Z" fill="#ff3f00"/>			<path d="M 160.3483 26.0942 L 160.3483 18.5343 C 160.3483 17.4289 160.768 17.2157 161.76 17.2157 L 173.5883 17.2157 C 174.6949 17.2157 175.2672 16.6253 175.2672 15.5551 C 175.2672 14.9647 175.0383 13.9674 173.5883 13.9674 L 160.6154 13.9674 C 157.0968 13.9674 157.0968 16.6622 157.0968 17.9994 L 157.0968 39.1578 C 157.0968 40.5272 157.0968 43.2949 160.6154 43.2949 L 174.1225 43.2949 C 175.229 43.2949 175.8014 42.7414 175.8014 41.6712 C 175.8014 41.1915 175.6869 40.0467 174.1225 40.0467 L 161.76 40.0467 C 160.768 40.0467 160.3483 39.8148 160.3483 38.6167 L 160.3483 29.3425 L 172.3674 29.3425 C 173.3976 29.3425 174.0081 28.7758 174.0081 27.6804 C 174.0081 27.2649 173.8936 26.0942 172.3674 26.0942 L 160.3483 26.0942 L 160.3483 26.0942 Z" fill="#ff3f00"/>		</g>		<g>			<path d="M 24.2328 56.5312 L 33.1057 56.5312 C 34.2343 56.5312 34.818 55.9094 34.818 54.7824 C 34.818 54.2772 34.6623 53.1114 33.1057 53.1114 L 11.7123 53.1114 C 10.5837 53.1114 10 53.7332 10 54.8213 C 10 55.3265 10.1167 56.5312 11.7123 56.5312 L 20.5852 56.5312 L 20.5852 82.0849 C 20.5852 83.3438 21.3451 83.8398 22.409 83.8398 C 22.9029 83.8398 24.2328 83.7253 24.2328 82.0849 L 24.2328 56.5312 L 24.2328 56.5312 Z" fill="#ff3f00"/>			<path d="M 43.6069 75.9189 L 57.235 75.9189 L 60.0599 82.3551 C 60.4417 83.2459 60.6707 83.8398 61.8541 83.8398 C 62.6939 83.8398 63.9187 83.4109 63.9187 82.4871 C 63.9187 82.1242 63.7628 81.7613 63.5337 81.2334 L 53.4558 55.4794 C 53.0741 54.4945 52.5015 53 50.4019 53 C 48.3405 53 47.8061 54.4551 47.4243 55.4794 L 37.3082 81.2334 C 37.041 81.7943 36.9265 82.1242 36.9265 82.4871 C 36.9265 83.3779 38.0717 83.8398 39.026 83.8398 C 40.1331 83.8398 40.4385 83.2459 40.8202 82.3551 L 43.6069 75.9189 L 43.6069 75.9189 ZM 44.7903 72.5768 L 50.4401 57.2127 L 56.0516 72.5768 L 44.7903 72.5768 L 44.7903 72.5768 Z" fill="#ff3f00"/>			<path d="M 72.3326 82.0718 C 72.3326 83.7269 73.5851 83.8398 74.1745 83.8398 C 74.6534 83.8398 75.9802 83.8398 75.9802 82.0718 L 75.9802 54.7623 C 75.9802 53.6338 75.3533 53 74.1377 53 C 73.6956 53 72.3326 53.0695 72.3326 54.7623 L 72.3326 82.0718 L 72.3326 82.0718 Z" fill="#ff3f00"/>			<path d="M 107.784 78.912 L 92.1329 55.1384 C 91.3361 53.8971 90.6843 53 89.0065 53 C 86.3848 53 86.3848 55.2136 86.3848 56.1917 L 86.3848 82.1094 C 86.3848 83.3508 87.1447 83.8398 88.2466 83.8398 C 88.6265 83.8398 90.0324 83.8398 90.0324 82.1094 L 90.0324 57.922 L 105.6772 81.6956 C 106.4739 82.937 107.1258 83.8398 108.8099 83.8398 C 111.4317 83.8398 111.4317 81.6204 111.4317 80.6048 L 111.4317 54.7246 C 111.4317 53.4457 110.6717 53 109.6078 53 C 108.43 53 107.784 53.5961 107.784 54.7246 L 107.784 78.912 L 107.784 78.912 Z" fill="#ff3f00"/>			<path d="M 124.362 66.7488 L 124.362 58.0515 C 124.362 56.7797 124.7901 56.5312 125.8019 56.5312 L 137.8659 56.5312 C 138.9945 56.5312 139.5782 55.9094 139.5782 54.7824 C 139.5782 54.1606 139.3447 53.1114 137.8659 53.1114 L 124.6344 53.1114 C 120.7144 53.1114 120.7144 55.9483 120.7144 57.4361 L 120.7144 79.7096 C 120.7144 81.0854 120.7144 84 124.6344 84 L 138.4107 84 C 139.5393 84 140.123 83.4171 140.123 82.2901 C 140.123 81.7849 140.0063 80.5802 138.4107 80.5802 L 125.8019 80.5802 C 124.7901 80.5802 124.362 80.3531 124.362 79.1796 L 124.362 70.0909 L 136.6206 70.0909 C 137.6713 70.0909 138.294 69.508 138.294 68.381 C 138.294 67.9535 138.1772 66.7488 136.6206 66.7488 L 124.362 66.7488 L 124.362 66.7488 Z" fill="#ff3f00"/>			<path d="M 157.6927 70.0114 C 164.6146 69.2157 165.2606 63.623 165.2606 61.6026 C 165.2606 58.553 163.9307 55.7151 161.1646 54.1995 C 159.4458 53.1891 158.7115 53.1114 157.0271 53.1114 L 153.0397 53.1114 C 149.1171 53.1114 147.9953 55.9483 147.9953 57.3712 L 147.9953 82.1404 C 147.9953 83.3111 148.6861 83.8398 149.8376 83.8398 C 150.2598 83.8398 151.6429 83.8398 151.6429 82.1404 L 151.6429 70.0909 L 154.1178 70.0909 L 162.4109 82.6313 C 162.9428 83.3866 163.2468 83.8398 164.0067 83.8398 C 164.8806 83.8398 166 83.1978 166 82.2159 C 166 81.7627 165.7665 81.3095 165.2226 80.592 L 157.6927 70.0114 L 157.6927 70.0114 ZM 151.6429 66.7488 L 151.6429 57.943 C 151.6429 56.7613 152.021 56.5312 152.9491 56.5312 L 155.5272 56.5312 C 157.4521 56.5312 161.6129 56.5312 161.6129 61.6407 C 161.6129 66.7488 156.9021 66.7488 155.5272 66.7488 L 151.6429 66.7488 L 151.6429 66.7488 Z" fill="#ff3f00"/>		</g>		<path opacity="0.1294" d="M 276.5 53 L 305.2659 121.2676 L 266.2164 121.2676 L 249.7746 100.5751 L 276.5 53 Z" stroke="#ffffff00" stroke-width="2" fill="#ed462f"/>		<path d="M 270.6883 121.2676 L 267.1938 112.6467 C 267.1938 112.6467 268.5479 104.8845 268.7736 100.7737 C 268.998 96.6641 270.6883 93.4661 271.705 87.9867 C 271.8337 87.2901 271.9768 86.5271 272.1297 85.7064 C 273.7969 80.7688 277.0596 71.1134 277.3423 68.9216 C 277.6796 66.2949 277.454 64.1265 277.3423 63.0982 C 277.2307 62.0711 277.6796 58.8731 277.1154 54.6493 C 276.5536 50.4242 271.9308 48.37 270.6883 47.6857 C 269.4506 47.0001 265.1651 48.0272 261.5565 47.913 C 260.3759 47.8761 259.1116 48.257 257.9431 48.784 C 256.9142 48.9818 255.6984 49.2853 254.2278 49.7411 C 252.4211 50.2989 251.1726 50.6318 250.1145 50.778 C 247.911 49.3602 244.783 47.1144 244.783 47.1144 C 244.783 47.1144 244.6131 47.1107 244.2758 47.1795 C 243.9264 46.3576 243.4811 45.2297 243.4313 44.7174 C 243.4313 44.7174 243.2772 44.6572 242.963 44.5921 C 242.9241 44.1965 242.8877 43.7751 242.8538 43.3242 C 242.8538 43.3218 242.8538 43.3205 242.8538 43.3193 C 242.8259 42.9212 242.8016 42.4974 242.7834 42.0613 C 242.8659 42.377 242.9241 42.5772 242.9241 42.5772 C 242.9241 42.5772 243.0916 41.8905 243.0916 41.4629 C 243.0916 41.0342 243.7686 38.3804 244.1084 37.0953 C 244.3826 36.0498 244.4335 35.4638 244.442 35.2807 L 244.442 35.2807 C 244.4335 35.594 244.4117 36.8484 244.783 35.6407 C 244.942 35.1272 245.1131 34.6247 245.3315 34.0878 C 245.8095 33.4477 246.3021 32.7794 246.7681 32.0864 C 246.9076 32.0139 247.0374 31.9415 247.1515 31.8739 C 248.4207 31.1011 249.8573 29.4745 249.7736 27.8478 C 249.7384 27.1476 249.7117 26.0517 249.5879 24.9545 C 249.52 23.5798 249.3501 21.7111 249.3501 20.7418 C 249.3501 19.3707 248.6743 16.8017 248.6743 16.8017 L 249.3501 19.1999 C 249.3501 19.1999 249.3501 16.3742 248.5056 13.8912 C 247.6587 11.407 247.7436 11.3223 245.7998 9.0101 C 244.8655 7.8994 244.0696 7.2262 243.492 6.8232 L 244.9541 7.6402 C 244.9541 7.6402 243.7686 6.5271 242.8392 5.328 C 241.9098 4.1302 240.2183 2.3315 238.2733 1.3044 C 236.3271 0.2761 233.4527 0.2761 231.0842 0.8757 C 228.7157 1.4752 227.9561 3.2726 227.9561 3.2726 C 227.9561 3.2726 227.5327 1.904 225.5039 0.6189 C 223.474 -0.665 219.7526 0.4469 219.7526 0.4469 C 219.7526 0.4469 221.6127 0.3621 222.627 0.7037 C 222.627 0.7037 220.3435 0.3621 218.9906 0.9617 C 217.6377 1.5612 215.9463 3.6166 214.9331 4.3869 L 217.2155 3.6166 C 217.2155 3.6166 214.6783 5.0713 213.5802 5.9276 C 212.4809 6.7839 211.3792 10.0384 211.3792 11.751 C 211.3792 11.751 211.8876 10.2079 212.3111 9.6096 C 212.3111 9.6096 211.5515 12.0926 211.8026 13.8912 C 212.0562 15.6886 212.396 16.6309 212.396 16.6309 L 212.6411 14.3138 C 212.612 14.6038 212.5416 15.7058 212.9032 17.3165 C 213.3254 19.1999 213.2417 20.6557 213.0706 21.9408 C 212.9032 23.2247 212.9032 24.5086 212.9032 24.5086 L 213.2417 22.8819 C 213.2417 22.8819 213.2041 27.3896 213.4686 26.1069 C 213.4735 26.0824 213.4771 26.0529 213.4819 26.0271 C 213.3982 26.9842 213.363 27.8798 213.4104 28.7324 C 213.522 30.7878 215.2741 35.583 215.4998 37.4099 C 215.524 37.6126 215.5629 37.8177 215.6065 38.0241 C 215.6199 38.0942 215.6369 38.1617 215.6539 38.2318 C 215.6866 38.3706 215.7254 38.5094 215.7643 38.647 C 215.7885 38.7257 215.8104 38.8031 215.8346 38.8817 C 215.8953 39.0672 215.9596 39.2527 216.0336 39.4333 C 216.0579 39.496 216.0846 39.5537 216.1113 39.6152 C 216.1671 39.7503 216.2278 39.8818 216.2897 40.012 C 216.32 40.0771 216.3515 40.141 216.3831 40.2049 C 216.468 40.3707 216.5578 40.5304 216.6512 40.6852 C 216.6792 40.7332 216.7107 40.7786 216.7398 40.8253 C 216.826 40.9592 216.9146 41.087 217.0043 41.2074 C 217.0286 41.2393 217.0504 41.2713 217.0723 41.3008 C 217.1815 41.4433 217.298 41.5723 217.412 41.6914 C 217.4411 41.7209 217.469 41.7467 217.497 41.7738 C 217.6183 41.8917 217.7421 42.0023 217.8658 42.0907 C 218.9955 42.8905 220.5134 42.662 221.1904 44.0319 C 221.239 44.1302 221.2863 44.2457 221.3336 44.371 C 221.3482 44.4091 221.3627 44.4496 221.3749 44.4901 C 221.4088 44.5847 221.4416 44.6867 221.4719 44.7948 C 221.4865 44.844 221.501 44.8943 221.5156 44.9459 C 221.5496 45.0651 221.5811 45.1904 221.6127 45.3219 C 221.6224 45.3698 221.6333 45.4153 221.6454 45.4632 C 221.6855 45.6511 221.7243 45.849 221.7619 46.0603 L 221.7619 46.0615 C 221.802 46.2839 221.8359 46.5234 221.8699 46.7704 C 221.8784 46.8367 221.8869 46.9068 221.8954 46.9743 C 221.9209 47.1783 221.9427 47.3896 221.9646 47.6095 C 221.9718 47.6734 221.9767 47.736 221.984 47.8012 C 222.0082 48.0813 222.0301 48.3724 222.0471 48.6771 C 222.0495 48.7324 222.0519 48.7902 222.0555 48.8454 C 222.0689 49.0998 222.0786 49.3627 222.0859 49.6317 C 222.0871 49.7276 222.0883 49.8222 222.0907 49.918 C 222.0907 49.9413 222.0907 49.9671 222.0907 49.9917 C 221.6818 49.9033 221.2099 49.859 220.682 49.9389 C 220.682 49.9389 218.1449 51.9095 217.8076 53.1086 C 217.6644 53.6111 217.6134 54.675 217.6001 55.739 C 216.8502 56.1825 215.4658 57.2698 212.9032 59.7872 C 212.1412 60.5341 208.7583 62.7837 208.7583 62.7837 L 208.6176 63.0625 C 206.789 63.6277 204.7737 64.242 203.9388 64.468 C 202.2486 64.9238 201.1214 64.1265 200.2187 64.468 C 199.3147 64.8108 197.849 65.7236 197.849 65.7236 C 197.849 65.7236 192.8876 68.1206 192.4386 68.1206 C 191.9872 68.1206 191.6475 66.9792 190.5203 67.8933 C 189.3931 68.8061 187.476 73.9441 187.476 73.9441 C 187.476 73.9441 186.1219 75.5424 184.8842 76.798 C 183.6442 78.0536 184.2072 80.9089 184.2072 80.9089 C 184.2072 80.9089 181.0488 81.9359 180.2614 82.7357 C 180.0563 82.9409 179.4338 83.4188 178.6257 84.0159 C 178.252 83.8673 177.8783 83.7628 177.5531 83.7628 C 176.3701 83.7628 167.5757 88.2152 167.0673 89.4131 C 166.5601 90.6121 166.0529 104.656 167.4058 108.2521 C 168.7587 111.8481 173.6631 113.0472 177.8929 114.2463 C 182.1202 115.4442 186.3488 116.1297 187.0271 115.4442 C 187.1836 115.2844 187.5221 114.9908 187.971 114.6185 C 187.9783 114.6726 187.9832 114.7267 187.988 114.782 C 186.8099 115.6235 185.4618 116.6285 184.8842 117.2145 C 183.7546 118.3559 182.7402 121.2676 182.7402 121.2676 L 270.6883 121.2676 ZM 214.0874 21.5403 C 214.0777 21.5944 214.0704 21.6448 214.0619 21.6976 C 214.1481 20.829 214.2124 20.0292 214.2427 19.4517 C 214.2451 20.0734 214.21 20.7614 214.0874 21.5403 Z" fill="#ed462f"/>		<path opacity="0.7294" d="M 38.5455 92 L 36.6061 92 L 36.6061 92.1257 C 37.2405 92.0414 37.8879 92 38.5455 92 ZM 36.6061 120.8743 L 36.6061 121 L 38.5455 121 C 37.8879 121 37.2405 120.9586 36.6061 120.8743 ZM 24 106.5 C 24 113.8527 29.4896 119.9292 36.6061 120.8743 C 37.2405 120.9586 37.8879 121 38.5455 121 L 137.4545 121 C 145.4879 121 152 114.5082 152 106.5 C 152 98.4918 145.4879 92 137.4545 92 L 38.5455 92 C 37.8879 92 37.2405 92.0414 36.6061 92.1257 C 29.4896 93.0708 24 99.1473 24 106.5 Z" fill="#ff4000"/>		<g>			<path d="M 39.7612 99.1482 C 39.8284 98.9139 39.9796 98.7131 39.9965 98.462 C 39.8452 98.3616 38.1982 97.8427 37.9965 97.8427 C 37.6772 97.8427 37.1562 98.9809 37.0049 99.2486 C 36.6352 99.9349 36.215 100.5709 35.8285 101.2404 C 35.5932 101.6588 35.3411 102.2614 35.0218 102.6631 C 34.7697 102.9811 33.8117 103.7175 33.8117 104.069 C 33.8117 104.2531 34.9546 106.4624 35.0722 106.4959 C 35.4419 106.3955 35.7781 105.8264 36.1478 105.6088 C 36.2486 105.8766 36.2486 106.1946 36.2486 106.4792 C 36.2486 107.1989 36.0638 107.8851 36.0638 108.5881 C 36.0638 109.609 36.2486 110.63 36.2486 111.6677 C 36.2486 112.2033 36.0974 112.7222 36.0974 113.241 C 36.0974 113.5088 36.3495 113.4921 36.5512 113.4921 C 36.8537 113.4921 38.0973 113.3582 38.3326 113.2076 C 38.8032 112.923 38.736 108.9563 38.736 108.4039 L 38.736 106.7972 C 38.736 105.6423 38.5847 104.5042 38.5847 103.366 C 38.5847 102.9643 38.6015 102.5292 38.6351 102.1275 C 38.6688 101.7592 39.3578 100.0186 39.6267 99.8679 C 40.1309 100.1357 39.862 101.5082 40.7527 101.5082 C 41.509 101.5082 42.2485 101.2906 42.988 101.2906 C 43.4754 101.2906 43.4417 102.5292 43.4417 102.8974 C 43.4417 103.1652 43.3745 103.4665 43.3577 103.7343 C 43.2737 104.7385 43.072 104.6046 42.0804 104.6046 C 41.2569 104.6046 40.4334 104.4037 39.6099 104.4037 C 39.4418 104.4037 39.257 104.387 39.1729 104.5376 C 39.0385 104.772 38.904 106.0273 38.904 106.3285 C 38.904 106.429 38.904 106.5963 38.9545 106.6967 C 39.0889 106.9478 40.3158 106.9311 40.6015 106.9311 C 41.1729 106.9311 41.7443 106.7637 42.3325 106.7637 C 42.5342 106.7637 43.0888 106.7302 43.2233 106.9311 C 43.3745 107.1487 43.4249 108.6885 43.4249 109.0567 C 43.4249 110.1949 43.6266 110.4794 42.467 110.6467 C 42.1645 110.697 41.8451 110.7639 41.5258 110.7639 C 41.0553 110.7639 40.5847 110.5798 40.1141 110.5798 C 39.5259 110.5798 39.5931 111.969 39.5931 112.3874 C 39.5931 112.9397 39.9796 112.8728 40.4166 112.8728 C 41.341 112.8728 42.2485 112.8226 43.1729 112.8393 C 43.6938 112.8393 44.198 112.9732 44.719 112.9732 C 45.2736 112.9732 45.8114 112.8728 46.3661 112.8728 C 47.2568 112.8728 48.1307 112.9397 49.0214 112.9397 C 49.408 112.9397 49.6601 113.0067 49.6601 112.5213 C 49.6601 112.2535 49.6097 111.1656 49.4416 110.9815 C 49.1727 110.6802 46.4165 110.9145 46.0467 110.5463 C 45.8451 110.3455 45.8619 108.6885 45.8619 108.337 C 45.8619 107.9688 45.677 106.8976 46.282 106.8976 C 46.8198 106.8976 47.3408 107.0148 47.8618 107.0148 C 49.5256 107.0148 49.7105 107.0315 49.7105 105.3912 C 49.7105 105.0565 49.7945 104.5042 49.3071 104.5042 C 48.7694 104.5042 46.4669 104.6548 46.1308 104.32 C 45.9795 104.1527 45.8282 102.8974 45.8282 102.6296 C 45.8282 100.1525 46.1476 100.7885 48.5677 100.1692 C 48.803 100.1023 49.1895 100.0353 49.3744 99.8847 C 49.3912 99.8512 49.3912 99.801 49.3912 99.7675 C 49.3912 99.4328 48.0467 97.826 47.6937 97.826 C 46.1644 97.826 44.6854 98.6126 43.2401 98.9641 C 42.2485 99.2152 41.0721 99.2989 40.0469 99.2989 C 39.9628 99.2989 39.8788 99.2821 39.7948 99.2654 L 39.7612 99.1482 L 39.7612 99.1482 Z" fill="#ffffff"/>			<path d="M 65.922 101.8262 C 65.6867 101.8262 65.1152 101.8429 64.9472 101.6756 C 64.9136 101.6086 64.8968 101.5249 64.8968 101.458 C 64.8968 101.0563 64.964 100.6546 64.964 100.2529 C 64.964 98.5122 64.9304 98.6461 63.0985 98.6461 C 62.9809 98.6461 62.8464 98.6461 62.7456 98.7131 C 62.5271 98.8637 62.4767 100.1023 62.4767 100.4035 C 62.4767 100.755 62.5607 101.1065 62.5607 101.458 C 62.5607 101.6588 62.5439 101.8094 62.3422 101.9099 C 61.9893 102.1107 59.4683 102.3785 58.9809 102.3785 C 58.7289 102.3785 58.4599 102.3953 58.4599 102.0605 C 58.4599 101.2571 58.628 100.4537 58.628 99.6336 C 58.628 99.0311 56.46 99.0144 56.0062 99.0144 C 55.7541 99.0144 55.5693 99.098 55.5693 99.3826 C 55.5693 100.3533 55.855 101.3408 55.855 102.3116 C 55.855 102.7802 55.2331 102.6798 54.8634 102.6798 C 54.4937 102.6798 52.9139 102.5292 52.6954 102.7802 C 52.6114 102.8807 52.5946 103.0313 52.5946 103.1652 C 52.5946 103.6506 52.5609 105.1402 53.2164 105.1402 C 53.9559 105.1402 54.7121 105.0063 55.4516 105.0063 C 55.9054 105.0063 55.855 105.0565 55.855 105.4582 C 55.855 106.044 55.6869 106.6465 55.6869 107.2323 C 55.6869 108.2701 56.1071 110.9815 56.8634 111.7179 C 57.6364 112.4711 59.9221 112.7054 60.9641 112.7054 C 61.8716 112.7054 62.7792 112.5883 63.6867 112.5381 C 64.2749 112.5046 64.8968 112.5548 65.485 112.4544 C 65.8043 112.4042 65.8883 112.2033 65.8883 111.902 C 65.8883 111.5171 65.8379 109.5588 65.3337 109.5588 C 64.7959 109.5588 64.0901 109.9438 63.5355 110.0442 C 62.9472 110.1446 62.1909 110.1781 61.5859 110.1781 C 61.0985 110.1781 59.0986 109.9605 58.7793 109.7262 C 58.5944 109.5923 58.3591 108.4039 58.3591 108.1361 C 58.3591 107.6173 58.4599 107.0984 58.4936 106.5796 C 58.5104 106.3453 58.4432 105.1737 58.6784 104.9059 C 59.0314 104.5042 61.6531 104.3033 62.2414 104.3033 C 62.443 104.3033 62.6279 104.3368 62.6279 104.5878 C 62.6279 104.8389 62.5943 105.5419 62.3926 105.6925 C 61.9052 106.0607 60.4767 105.5084 60.4767 106.3955 C 60.4767 108.5379 60.4935 108.2701 62.5943 108.2701 C 63.2666 108.2701 64.7455 107.5671 64.7455 106.8306 C 64.7455 106.4457 64.5943 104.4539 64.9808 104.2364 C 65.5354 103.9184 67.653 104.4707 67.653 103.6673 C 67.653 103.3158 67.569 101.7258 67.0984 101.7258 C 66.7119 101.7258 66.3085 101.8262 65.922 101.8262 L 65.922 101.8262 Z" fill="#ffffff"/>			<path d="M 71.7303 100.8554 C 71.7303 101.2404 71.7135 102.8305 72.2177 102.8305 C 74.0159 102.8305 75.7806 102.0773 77.5789 102.0773 C 77.7469 102.0773 77.915 102.0773 78.0663 102.1275 C 77.9318 102.4957 77.6293 102.8137 77.4276 103.1317 C 76.6041 104.4205 76.2176 105.023 76.2176 106.5628 C 76.2176 107.0482 76.3352 107.4332 76.4529 107.9018 C 77.1083 110.3287 78.4696 111.3999 80.8225 112.1364 C 81.2259 112.2703 82.4023 112.605 82.772 112.605 C 83.3435 112.605 83.8813 110.63 83.8813 110.2451 C 83.8813 110.1781 83.8645 110.0944 83.8309 110.0107 C 83.6796 109.6592 80.3015 109.1739 79.4444 108.1194 C 79.2932 107.9353 79.1251 107.5001 79.041 107.2658 C 78.957 107.0315 78.7889 106.5963 78.7889 106.362 C 78.7889 106.044 79.1587 105.2239 79.2932 104.9059 C 79.5452 104.3368 79.9318 103.5167 80.3856 103.0815 C 81.478 102.027 83.2258 101.8262 84.6544 101.8262 C 85.1081 101.8262 85.3266 101.8429 85.3266 101.3074 C 85.3266 100.8387 85.4611 99.416 84.7888 99.416 C 83.5283 99.416 81.3939 99.4328 80.1839 99.6336 C 79.6461 99.7173 79.0074 99.8679 78.4696 99.8679 C 77.7469 99.8679 77.0075 99.8345 76.2848 99.8345 C 75.7134 99.8345 75.0748 100.0855 74.5033 100.1692 C 73.6966 100.2864 72.8563 100.1692 72.0496 100.3031 C 71.7807 100.3533 71.7303 100.6211 71.7303 100.8554 L 71.7303 100.8554 Z" fill="#ffffff"/>			<path d="M 100.6641 108.1864 C 100.6473 108.2198 100.6473 108.2701 100.6809 108.2868 C 100.8658 108.3035 101.0339 108.3035 101.2187 108.3035 C 101.4204 108.3035 101.6389 108.3203 101.8406 108.2701 C 102.3448 108.1696 104.1766 107.0315 104.496 106.6298 C 104.6808 106.4122 104.8153 106.1612 104.9666 105.9101 C 105.0338 105.7929 105.2354 105.4749 105.2354 105.341 C 105.2354 104.9728 103.4036 104.0857 103.0338 104.0857 C 102.2607 104.0857 102.7313 105.6758 100.6305 105.6758 C 100.3448 105.6758 99.5549 105.5921 99.3196 105.4749 C 97.555 104.6046 97.1012 102.6463 94.6643 102.6463 C 93.1517 102.6463 90.6812 104.002 90.0593 105.3745 C 89.9921 105.5084 89.8745 105.7092 89.8745 105.8599 C 89.8745 106.1946 91.303 106.8139 91.6055 106.8139 C 92.0089 106.8139 93.303 105.2239 94.1265 105.2239 C 95.992 105.2239 96.9667 107.2826 98.5297 107.9855 C 98.8154 108.1194 98.9835 108.2701 99.3196 108.2701 C 99.7398 108.2701 100.1767 108.1529 100.5969 108.1027 L 100.6641 108.1864 L 100.6641 108.1864 Z" fill="#ffffff"/>			<path d="M 110.0186 100.7717 C 109.5312 100.755 108.9598 100.5876 108.9598 101.2237 C 108.9598 101.5249 108.9934 102.6965 109.1951 102.8974 C 109.3127 103.0145 109.4976 102.9978 109.6488 102.9978 C 110.0018 102.9978 110.9766 102.8137 110.9766 103.2656 C 110.9766 105.3243 108.7749 107.9018 108.7749 108.6383 C 108.7749 109.0065 110.2707 109.9438 110.6236 109.9438 C 110.8421 109.9438 113.0101 106.5796 113.1446 106.1277 C 113.3631 105.4415 113.8672 103.9351 114.2034 103.3493 C 114.7076 102.479 116.9932 103.0145 116.9932 101.9936 C 116.9932 101.709 117.0605 100.2194 116.6571 100.2194 C 116.2201 100.2194 115.8168 100.5207 115.3966 100.5207 C 115.2454 100.5207 115.2454 100.4203 115.2454 100.3031 C 115.2454 99.8177 115.6319 99.3156 115.6319 98.8135 C 115.6319 98.3281 113.9513 98.3448 113.5983 98.3448 C 112.4387 98.3448 112.7244 100.3701 112.0186 100.6044 C 111.6824 100.7215 111.2119 100.7717 110.8757 100.7717 L 110.0186 100.7717 L 110.0186 100.7717 ZM 122.1191 104.4874 C 122.4889 104.4874 123.1947 103.0815 123.1947 102.7467 C 123.1947 102.1107 119.9343 100.5542 119.3125 100.5542 C 118.9427 100.5542 118.3713 101.6923 118.3713 102.0103 C 118.3713 102.4957 121.5645 104.4874 122.1191 104.4874 L 122.1191 104.4874 ZM 118.8083 103.5501 C 118.489 103.5501 116.8756 103.5501 116.8756 103.9853 C 116.8756 104.8054 117.2285 105.6255 117.2285 106.429 C 117.2285 107.2156 113.7496 107.383 113.0774 108.4374 C 112.9093 108.7052 112.6404 109.6592 112.6404 109.9773 C 112.6404 110.2283 112.758 110.5128 112.8421 110.7472 C 112.9261 110.9982 112.9933 111.2493 113.1278 111.4836 C 113.6151 112.3037 115.3294 112.8561 116.2538 112.8561 C 116.7747 112.8561 118.4722 112.2201 118.8755 111.8853 C 119.1949 111.6175 119.6654 110.3287 119.9007 110.3287 C 120.2368 110.3287 121.1276 111.6677 121.4973 111.6677 C 121.783 111.6677 122.7914 110.1111 122.7914 109.8099 C 122.7914 109.5588 122.4889 109.3245 122.3208 109.1739 C 121.6486 108.5713 119.7663 107.8181 119.5982 107.6006 C 119.531 107.5169 119.4806 107.3997 119.4806 107.2993 C 119.4806 106.9143 119.5478 106.5294 119.5478 106.1444 C 119.5478 105.6925 119.4806 103.8849 119.1949 103.6506 C 119.094 103.5669 118.9427 103.5501 118.8083 103.5501 L 118.8083 103.5501 ZM 116.237 110.7137 C 115.968 110.7137 114.9429 109.9438 114.8756 109.7095 C 114.9597 109.4584 116.0857 109.0902 116.3546 109.0902 C 116.6067 109.0902 117.7159 109.1739 117.7159 109.4751 C 117.7159 110.312 117.01 110.7137 116.237 110.7137 L 116.237 110.7137 Z" fill="#ffffff"/>			<path d="M 137.6584 108.1864 C 137.6415 108.2198 137.6415 108.2701 137.6752 108.2868 C 137.86 108.3035 138.0281 108.3035 138.213 108.3035 C 138.4146 108.3035 138.6331 108.3203 138.8348 108.2701 C 139.339 108.1696 141.1709 107.0315 141.4902 106.6298 C 141.6751 106.4122 141.8095 106.1612 141.9608 105.9101 C 142.028 105.7929 142.2297 105.4749 142.2297 105.341 C 142.2297 104.9728 140.3978 104.0857 140.028 104.0857 C 139.2549 104.0857 139.7255 105.6758 137.6247 105.6758 C 137.339 105.6758 136.5491 105.5921 136.3138 105.4749 C 134.5492 104.6046 134.0954 102.6463 131.6585 102.6463 C 130.1459 102.6463 127.6754 104.002 127.0536 105.3745 C 126.9863 105.5084 126.8687 105.7092 126.8687 105.8599 C 126.8687 106.1946 128.2972 106.8139 128.5997 106.8139 C 129.0031 106.8139 130.2972 105.2239 131.1207 105.2239 C 132.9862 105.2239 133.961 107.2826 135.5239 107.9855 C 135.8097 108.1194 135.9777 108.2701 136.3138 108.2701 C 136.734 108.2701 137.171 108.1529 137.5911 108.1027 L 137.6584 108.1864 L 137.6584 108.1864 Z" fill="#ffffff"/>		</g>	</g></svg>