<?xml version="1.0" standalone="no"?><!-- Generator: Adobe Fireworks CS6, Export SVG Extension by Aaron Beall (http://fireworks.abeall.com) . Version: 0.6.1  --><!DOCTYPE svg PUBLIC "-//W3C//DTD SVG 1.1//EN" "http://www.w3.org/Graphics/SVG/1.1/DTD/svg11.dtd"><svg id="Untitled-%u30DA%u30FC%u30B8%201" viewBox="0 0 132 30" style="background-color:#ffffff00" version="1.1"	xmlns="http://www.w3.org/2000/svg" xmlns:xlink="http://www.w3.org/1999/xlink" xml:space="preserve"	x="0px" y="0px" width="132px" height="30px">	<g id="%u30EC%u30A4%u30E4%u30FC%201">		<path opacity="0.7294" d="M 15 0 L 13 0 L 13 0.13 C 13.6543 0.0428 14.3219 0 15 0 ZM 13 29.87 L 13 30 L 15 30 C 14.3219 30 13.6543 29.9572 13 29.87 ZM 0 15 C 0 22.6063 5.6612 28.8922 13 29.87 C 13.6543 29.9572 14.3219 30 15 30 L 117 30 C 125.2844 30 132 23.2844 132 15 C 132 6.7156 125.2844 0 117 0 L 15 0 C 14.3219 0 13.6543 0.0428 13 0.13 C 5.6612 1.1078 0 7.3937 0 15 Z" fill="#ff4000"/>		<g>			<path d="M 16.2537 7.3947 C 16.323 7.1523 16.479 6.9445 16.4963 6.6848 C 16.3404 6.5809 14.6419 6.0442 14.4339 6.0442 C 14.1046 6.0442 13.5673 7.2216 13.4113 7.4986 C 13.03 8.2085 12.5968 8.8665 12.1981 9.559 C 11.9555 9.9919 11.6955 10.6152 11.3662 11.0308 C 11.1062 11.3597 10.1183 12.1216 10.1183 12.4852 C 10.1183 12.6756 11.2969 14.9611 11.4182 14.9958 C 11.7995 14.8919 12.1461 14.3032 12.5274 14.0781 C 12.6314 14.3551 12.6314 14.6841 12.6314 14.9785 C 12.6314 15.723 12.4408 16.4329 12.4408 17.1601 C 12.4408 18.2162 12.6314 19.2724 12.6314 20.3459 C 12.6314 20.9 12.4754 21.4367 12.4754 21.9735 C 12.4754 22.2505 12.7354 22.2332 12.9434 22.2332 C 13.2553 22.2332 14.5379 22.0947 14.7805 21.9388 C 15.2658 21.6445 15.1965 17.541 15.1965 16.9696 L 15.1965 15.3074 C 15.1965 14.1127 15.0405 12.9353 15.0405 11.758 C 15.0405 11.3424 15.0578 10.8922 15.0925 10.4767 C 15.1272 10.0958 15.8377 8.2951 16.1151 8.1393 C 16.635 8.4163 16.3577 9.8361 17.2763 9.8361 C 18.0562 9.8361 18.8188 9.611 19.5814 9.611 C 20.084 9.611 20.0493 10.8922 20.0493 11.2732 C 20.0493 11.5502 19.98 11.8618 19.9626 12.1389 C 19.876 13.1777 19.668 13.0392 18.6454 13.0392 C 17.7962 13.0392 16.947 12.8315 16.0977 12.8315 C 15.9244 12.8315 15.7338 12.8141 15.6471 12.97 C 15.5085 13.2124 15.3698 14.511 15.3698 14.8226 C 15.3698 14.9265 15.3698 15.0996 15.4218 15.2035 C 15.5604 15.4633 16.8256 15.4459 17.1203 15.4459 C 17.7095 15.4459 18.2988 15.2728 18.9054 15.2728 C 19.1134 15.2728 19.6853 15.2382 19.824 15.4459 C 19.98 15.671 20.032 17.2639 20.032 17.6449 C 20.032 18.8223 20.24 19.1166 19.0441 19.2897 C 18.7321 19.3417 18.4028 19.4109 18.0735 19.4109 C 17.5882 19.4109 17.1029 19.2205 16.6177 19.2205 C 16.0111 19.2205 16.0804 20.6576 16.0804 21.0905 C 16.0804 21.6618 16.479 21.5926 16.9296 21.5926 C 17.8829 21.5926 18.8188 21.5406 19.772 21.5579 C 20.3093 21.5579 20.8292 21.6964 21.3665 21.6964 C 21.9384 21.6964 22.493 21.5926 23.065 21.5926 C 23.9836 21.5926 24.8848 21.6618 25.8034 21.6618 C 26.202 21.6618 26.462 21.7311 26.462 21.2289 C 26.462 20.9519 26.41 19.8265 26.2366 19.636 C 25.9594 19.3244 23.117 19.5668 22.7357 19.1859 C 22.5277 18.9781 22.545 17.2639 22.545 16.9003 C 22.545 16.5194 22.3544 15.4113 22.9783 15.4113 C 23.5329 15.4113 24.0702 15.5325 24.6075 15.5325 C 26.3233 15.5325 26.514 15.5498 26.514 13.853 C 26.514 13.5067 26.6006 12.9353 26.098 12.9353 C 25.5434 12.9353 23.169 13.0912 22.8223 12.7449 C 22.6664 12.5717 22.5104 11.2732 22.5104 10.9961 C 22.5104 8.4336 22.8397 9.0916 25.3354 8.4509 C 25.5781 8.3817 25.9767 8.3124 26.1673 8.1566 C 26.1847 8.1219 26.1847 8.07 26.1847 8.0354 C 26.1847 7.6891 24.7981 6.0269 24.4342 6.0269 C 22.857 6.0269 21.3318 6.8407 19.8413 7.2043 C 18.8188 7.464 17.6056 7.5505 16.5483 7.5505 C 16.4617 7.5505 16.375 7.5332 16.2884 7.5159 L 16.2537 7.3947 L 16.2537 7.3947 Z" fill="#ffffff"/>			<path d="M 43.232 10.165 C 42.9894 10.165 42.4001 10.1823 42.2268 10.0092 C 42.1921 9.9399 42.1748 9.8534 42.1748 9.7841 C 42.1748 9.3686 42.2441 8.953 42.2441 8.5375 C 42.2441 6.7368 42.2095 6.8753 40.3203 6.8753 C 40.199 6.8753 40.0603 6.8753 39.9564 6.9445 C 39.731 7.1004 39.679 8.3817 39.679 8.6933 C 39.679 9.0569 39.7657 9.4205 39.7657 9.7841 C 39.7657 9.9919 39.7484 10.1477 39.5404 10.2516 C 39.1764 10.4594 36.5767 10.7364 36.0741 10.7364 C 35.8141 10.7364 35.5368 10.7537 35.5368 10.4074 C 35.5368 9.5764 35.7101 8.7452 35.7101 7.8969 C 35.7101 7.2735 33.4744 7.2562 33.0064 7.2562 C 32.7464 7.2562 32.5558 7.3428 32.5558 7.6371 C 32.5558 8.6414 32.8504 9.6629 32.8504 10.6671 C 32.8504 11.1519 32.2092 11.0481 31.8279 11.0481 C 31.4466 11.0481 29.8174 10.8922 29.5921 11.1519 C 29.5055 11.2559 29.4881 11.4117 29.4881 11.5502 C 29.4881 12.0523 29.4535 13.5933 30.1294 13.5933 C 30.892 13.5933 31.6719 13.4548 32.4345 13.4548 C 32.9024 13.4548 32.8504 13.5067 32.8504 13.9223 C 32.8504 14.5283 32.6771 15.1516 32.6771 15.7576 C 32.6771 16.8311 33.1104 19.636 33.8903 20.3979 C 34.6876 21.177 37.0447 21.4194 38.1192 21.4194 C 39.0551 21.4194 39.991 21.2982 40.9269 21.2463 C 41.5335 21.2116 42.1748 21.2636 42.7814 21.1597 C 43.1107 21.1078 43.1974 20.9 43.1974 20.5883 C 43.1974 20.1901 43.1454 18.1643 42.6254 18.1643 C 42.0708 18.1643 41.3429 18.5625 40.7709 18.6664 C 40.1643 18.7703 39.3844 18.8049 38.7605 18.8049 C 38.2579 18.8049 36.1954 18.5798 35.8661 18.3374 C 35.6755 18.1989 35.4328 16.9696 35.4328 16.6926 C 35.4328 16.1558 35.5368 15.6191 35.5715 15.0823 C 35.5888 14.8399 35.5195 13.6279 35.7621 13.3509 C 36.1261 12.9353 38.8298 12.7276 39.4364 12.7276 C 39.6444 12.7276 39.835 12.7622 39.835 13.0219 C 39.835 13.2816 39.8004 14.0089 39.5924 14.1647 C 39.0898 14.5456 37.6166 13.9742 37.6166 14.8919 C 37.6166 17.1081 37.6339 16.8311 39.8004 16.8311 C 40.4936 16.8311 42.0188 16.1039 42.0188 15.342 C 42.0188 14.9438 41.8628 12.8834 42.2614 12.6583 C 42.8334 12.3293 45.0172 12.9007 45.0172 12.0696 C 45.0172 11.706 44.9305 10.0612 44.4452 10.0612 C 44.0466 10.0612 43.6306 10.165 43.232 10.165 L 43.232 10.165 Z" fill="#ffffff"/>			<path d="M 49.2219 9.1608 C 49.2219 9.559 49.2045 11.2039 49.7245 11.2039 C 51.5789 11.2039 53.3988 10.4247 55.2532 10.4247 C 55.4265 10.4247 55.5999 10.4247 55.7558 10.4767 C 55.6172 10.8576 55.3052 11.1866 55.0973 11.5156 C 54.248 12.8488 53.8494 13.4721 53.8494 15.065 C 53.8494 15.5671 53.9707 15.9654 54.092 16.4502 C 54.7679 18.9608 56.1718 20.0689 58.5982 20.8307 C 59.0142 20.9692 60.2274 21.3155 60.6087 21.3155 C 61.1979 21.3155 61.7526 19.2724 61.7526 18.8742 C 61.7526 18.8049 61.7352 18.7184 61.7006 18.6318 C 61.5446 18.2682 58.0609 17.7661 57.177 16.6753 C 57.0211 16.4848 56.8477 16.0346 56.7611 15.7922 C 56.6744 15.5498 56.5011 15.0996 56.5011 14.8572 C 56.5011 14.5283 56.8824 13.6799 57.0211 13.3509 C 57.281 12.7622 57.6797 11.9138 58.1476 11.4636 C 59.2741 10.3728 61.0766 10.165 62.5498 10.165 C 63.0178 10.165 63.2431 10.1823 63.2431 9.6283 C 63.2431 9.1435 63.3817 7.6718 62.6884 7.6718 C 61.3886 7.6718 59.1875 7.6891 57.9396 7.8969 C 57.385 7.9834 56.7264 8.1393 56.1718 8.1393 C 55.4265 8.1393 54.664 8.1046 53.9187 8.1046 C 53.3294 8.1046 52.6708 8.3643 52.0816 8.4509 C 51.2496 8.5721 50.3831 8.4509 49.5512 8.5894 C 49.2739 8.6414 49.2219 8.9184 49.2219 9.1608 L 49.2219 9.1608 Z" fill="#ffffff"/>			<path d="M 79.0599 16.7445 C 79.0425 16.7791 79.0425 16.8311 79.0772 16.8484 C 79.2679 16.8657 79.4412 16.8657 79.6318 16.8657 C 79.8398 16.8657 80.0651 16.883 80.2731 16.8311 C 80.793 16.7272 82.6822 15.5498 83.0115 15.1343 C 83.2021 14.9092 83.3408 14.6495 83.4967 14.3898 C 83.5661 14.2686 83.774 13.9396 83.774 13.8011 C 83.774 13.4201 81.8849 12.5025 81.5036 12.5025 C 80.7064 12.5025 81.1917 14.1473 79.0252 14.1473 C 78.7306 14.1473 77.916 14.0608 77.6734 13.9396 C 75.8535 13.0392 75.3856 11.0134 72.8725 11.0134 C 71.3127 11.0134 68.765 12.4159 68.1237 13.8357 C 68.0544 13.9742 67.933 14.182 67.933 14.3378 C 67.933 14.6841 69.4062 15.3247 69.7182 15.3247 C 70.1342 15.3247 71.4687 13.6799 72.3179 13.6799 C 74.2417 13.6799 75.2469 15.8095 76.8588 16.5367 C 77.1534 16.6753 77.3267 16.8311 77.6734 16.8311 C 78.1067 16.8311 78.5573 16.7099 78.9906 16.658 L 79.0599 16.7445 L 79.0599 16.7445 Z" fill="#ffffff"/>			<path d="M 88.7067 9.0742 C 88.2041 9.0569 87.6148 8.8838 87.6148 9.5417 C 87.6148 9.8534 87.6495 11.0654 87.8574 11.2732 C 87.9788 11.3943 88.1694 11.377 88.3254 11.377 C 88.6894 11.377 89.6946 11.1866 89.6946 11.6541 C 89.6946 13.7838 87.4241 16.4502 87.4241 17.212 C 87.4241 17.5929 88.9666 18.5625 89.3306 18.5625 C 89.5559 18.5625 91.7917 15.0823 91.9303 14.6148 C 92.1557 13.905 92.6756 12.3466 93.0222 11.7407 C 93.5422 10.8403 95.8993 11.3943 95.8993 10.3382 C 95.8993 10.0438 95.9686 8.5028 95.5526 8.5028 C 95.102 8.5028 94.6861 8.8145 94.2528 8.8145 C 94.0968 8.8145 94.0968 8.7106 94.0968 8.5894 C 94.0968 8.0873 94.4954 7.5679 94.4954 7.0484 C 94.4954 6.5463 92.7623 6.5636 92.3983 6.5636 C 91.2024 6.5636 91.4971 8.6587 90.7691 8.9011 C 90.4225 9.0223 89.9372 9.0742 89.5906 9.0742 L 88.7067 9.0742 L 88.7067 9.0742 ZM 101.1854 12.918 C 101.5667 12.918 102.2946 11.4636 102.2946 11.1173 C 102.2946 10.4594 98.9323 8.8491 98.291 8.8491 C 97.9097 8.8491 97.3204 10.0265 97.3204 10.3555 C 97.3204 10.8576 100.6134 12.918 101.1854 12.918 L 101.1854 12.918 ZM 97.7711 11.9484 C 97.4418 11.9484 95.7779 11.9484 95.7779 12.3986 C 95.7779 13.247 96.1419 14.0954 96.1419 14.9265 C 96.1419 15.7403 92.5543 15.9134 91.861 17.0042 C 91.6877 17.2813 91.4104 18.2682 91.4104 18.5972 C 91.4104 18.8569 91.5317 19.1512 91.6184 19.3936 C 91.705 19.6534 91.7744 19.9131 91.913 20.1555 C 92.4156 21.0039 94.1834 21.5753 95.1367 21.5753 C 95.674 21.5753 97.4244 20.9173 97.8404 20.571 C 98.1697 20.294 98.655 18.9608 98.8976 18.9608 C 99.2442 18.9608 100.1628 20.3459 100.5441 20.3459 C 100.8387 20.3459 101.8786 18.7357 101.8786 18.424 C 101.8786 18.1643 101.5667 17.9219 101.3933 17.7661 C 100.7001 17.1428 98.759 16.3636 98.5856 16.1385 C 98.5163 16.0519 98.4643 15.9307 98.4643 15.8268 C 98.4643 15.4286 98.5337 15.0304 98.5337 14.6321 C 98.5337 14.1647 98.4643 12.2947 98.1697 12.0523 C 98.0657 11.9657 97.9097 11.9484 97.7711 11.9484 L 97.7711 11.9484 ZM 95.1194 19.359 C 94.842 19.359 93.7848 18.5625 93.7155 18.3201 C 93.8022 18.0604 94.9633 17.6795 95.2407 17.6795 C 95.5006 17.6795 96.6445 17.7661 96.6445 18.0777 C 96.6445 18.9435 95.9166 19.359 95.1194 19.359 L 95.1194 19.359 Z" fill="#ffffff"/>			<path d="M 117.2102 16.7445 C 117.1928 16.7791 117.1928 16.8311 117.2275 16.8484 C 117.4182 16.8657 117.5915 16.8657 117.7821 16.8657 C 117.9901 16.8657 118.2154 16.883 118.4234 16.8311 C 118.9433 16.7272 120.8325 15.5498 121.1618 15.1343 C 121.3524 14.9092 121.4911 14.6495 121.647 14.3898 C 121.7164 14.2686 121.9243 13.9396 121.9243 13.8011 C 121.9243 13.4201 120.0352 12.5025 119.6539 12.5025 C 118.8567 12.5025 119.3419 14.1473 117.1755 14.1473 C 116.8809 14.1473 116.0663 14.0608 115.8236 13.9396 C 114.0038 13.0392 113.5359 11.0134 111.0228 11.0134 C 109.463 11.0134 106.9153 12.4159 106.274 13.8357 C 106.2047 13.9742 106.0833 14.182 106.0833 14.3378 C 106.0833 14.6841 107.5565 15.3247 107.8685 15.3247 C 108.2844 15.3247 109.619 13.6799 110.4682 13.6799 C 112.392 13.6799 113.3972 15.8095 115.0091 16.5367 C 115.3037 16.6753 115.477 16.8311 115.8236 16.8311 C 116.2569 16.8311 116.7076 16.7099 117.1408 16.658 L 117.2102 16.7445 L 117.2102 16.7445 Z" fill="#ffffff"/>		</g>	</g></svg>