<?xml version="1.0" standalone="no"?><!-- Generator: Adobe Fireworks CS6, Export SVG Extension by Aaron Beall (http://fireworks.abeall.com) . Version: 0.6.1  --><!DOCTYPE svg PUBLIC "-//W3C//DTD SVG 1.1//EN" "http://www.w3.org/Graphics/SVG/1.1/DTD/svg11.dtd"><svg id="Untitled-%u30DA%u30FC%u30B8%201" viewBox="0 0 147 129" style="background-color:#ffffff00" version="1.1"	xmlns="http://www.w3.org/2000/svg" xmlns:xlink="http://www.w3.org/1999/xlink" xml:space="preserve"	x="0px" y="0px" width="147px" height="129px">	<g id="%u30EC%u30A4%u30E4%u30FC%201">		<g>			<path opacity="0.1294" d="M 112.7778 48.9857 L 145 127 L 104.1852 127 L 87 105.3294 L 112.7778 48.9857 Z" stroke="#ffffff00" stroke-width="2" fill="#ed462f"/>			<path d="M 108.8592 127 L 105.2067 117.9715 C 105.2067 117.9715 106.622 109.8425 106.8579 105.5374 C 107.0925 101.2335 108.8592 97.8843 109.9219 92.1459 C 110.0564 91.4163 110.206 90.6173 110.3658 89.7578 C 112.1084 84.5868 115.5185 74.475 115.814 72.1796 C 116.1666 69.4287 115.9307 67.1578 115.814 66.0808 C 115.6974 65.0052 116.1666 61.6561 115.5769 57.2325 C 114.9897 52.8077 110.1578 50.6565 108.8592 49.9398 C 107.5656 49.2218 103.0863 50.2975 99.3146 50.1778 C 98.0806 50.1392 96.7591 50.5381 95.5378 51.0901 C 94.4624 51.2972 93.1916 51.615 91.6546 52.0924 C 89.7662 52.6765 88.4612 53.0252 87.3553 53.1783 C 85.0522 51.6935 81.7828 49.3415 81.7828 49.3415 C 81.7828 49.3415 81.6052 49.3377 81.2527 49.4097 C 80.8874 48.5489 80.422 47.3678 80.37 46.8313 C 80.37 46.8313 80.2089 46.7682 79.8804 46.7 C 79.8399 46.2857 79.8018 45.8444 79.7663 45.3722 C 79.7663 45.3696 79.7663 45.3683 79.7663 45.367 C 79.7372 44.9502 79.7118 44.5062 79.6927 44.0495 C 79.779 44.3802 79.8399 44.5899 79.8399 44.5899 C 79.8399 44.5899 80.0149 43.8707 80.0149 43.4229 C 80.0149 42.9738 80.7225 40.1947 81.0777 38.8488 C 81.3642 37.7539 81.4175 37.1402 81.4264 36.9485 L 81.4264 36.9485 C 81.4175 37.2766 81.3947 38.5902 81.7828 37.3254 C 81.9489 36.7876 82.1277 36.2614 82.356 35.6991 C 82.8557 35.0288 83.3706 34.3288 83.8576 33.6031 C 84.0034 33.5273 84.1391 33.4514 84.2583 33.3806 C 85.5849 32.5713 87.0865 30.8677 86.9989 29.1642 C 86.9622 28.4308 86.9343 27.2831 86.8049 26.1342 C 86.7339 24.6944 86.5563 22.7374 86.5563 21.7222 C 86.5563 20.2863 85.8499 17.5959 85.8499 17.5959 L 86.5563 20.1075 C 86.5563 20.1075 86.5563 17.1482 85.6736 14.5478 C 84.7884 11.9462 84.8772 11.8574 82.8456 9.436 C 81.869 8.2728 81.0371 7.5677 80.4334 7.1457 L 81.9616 8.0013 C 81.9616 8.0013 80.7225 6.8356 79.7511 5.5799 C 78.7796 4.3254 77.0117 2.4417 74.9788 1.3661 C 72.9446 0.2892 69.9402 0.2892 67.4646 0.917 C 64.9891 1.5449 64.1952 3.4273 64.1952 3.4273 C 64.1952 3.4273 63.7526 1.994 61.6321 0.6481 C 59.5104 -0.6964 55.6208 0.468 55.6208 0.468 C 55.6208 0.468 57.565 0.3792 58.6252 0.7369 C 58.6252 0.7369 56.2384 0.3792 54.8243 1.0071 C 53.4103 1.635 51.6424 3.7876 50.5834 4.5943 L 52.9689 3.7876 C 52.9689 3.7876 50.3171 5.311 49.1694 6.2078 C 48.0204 7.1046 46.8688 10.5129 46.8688 12.3065 C 46.8688 12.3065 47.4002 10.6904 47.8428 10.0639 C 47.8428 10.0639 47.0489 12.6642 47.3114 14.5478 C 47.5765 16.4302 47.9316 17.4171 47.9316 17.4171 L 48.1878 14.9905 C 48.1573 15.2941 48.0838 16.4482 48.4617 18.135 C 48.903 20.1075 48.8155 21.6322 48.6367 22.978 C 48.4617 24.3225 48.4617 25.6671 48.4617 25.6671 L 48.8155 23.9636 C 48.8155 23.9636 48.7762 28.6843 49.0527 27.341 C 49.0578 27.3153 49.0616 27.2844 49.0667 27.2574 C 48.9791 28.2597 48.9424 29.1977 48.9918 30.0906 C 49.1085 32.2432 50.9398 37.265 51.1757 39.1782 C 51.201 39.3905 51.2416 39.6054 51.2873 39.8215 C 51.3012 39.8949 51.319 39.9657 51.3367 40.039 C 51.371 40.1844 51.4116 40.3298 51.4522 40.4739 C 51.4775 40.5562 51.5003 40.6373 51.5257 40.7196 C 51.5891 40.9139 51.6563 41.1082 51.7337 41.2973 C 51.7591 41.363 51.7869 41.4234 51.8148 41.4878 C 51.8732 41.6293 51.9366 41.767 52.0013 41.9033 C 52.033 41.9716 52.066 42.0385 52.0989 42.1054 C 52.1877 42.2791 52.2815 42.4464 52.3792 42.6084 C 52.4084 42.6586 52.4414 42.7062 52.4718 42.7551 C 52.5618 42.8954 52.6544 43.0292 52.7483 43.1553 C 52.7736 43.1887 52.7965 43.2222 52.8193 43.2531 C 52.9334 43.4023 53.0552 43.5374 53.1744 43.6622 C 53.2048 43.6931 53.234 43.7201 53.2632 43.7484 C 53.39 43.8719 53.5193 43.9877 53.6487 44.0804 C 54.8294 44.918 56.4159 44.6787 57.1236 46.1133 C 57.1743 46.2162 57.2238 46.3372 57.2733 46.4684 C 57.2885 46.5083 57.3037 46.5507 57.3164 46.5932 C 57.3519 46.6923 57.3861 46.7991 57.4178 46.9123 C 57.4331 46.9638 57.4483 47.0165 57.4635 47.0706 C 57.499 47.1954 57.532 47.3266 57.565 47.4643 C 57.5751 47.5145 57.5865 47.5621 57.5992 47.6123 C 57.641 47.8091 57.6816 48.0162 57.7209 48.2375 L 57.7209 48.2388 C 57.7628 48.4717 57.7983 48.7226 57.8338 48.9812 C 57.8427 49.0507 57.8516 49.1241 57.8604 49.1948 C 57.8871 49.4084 57.9099 49.6297 57.9327 49.86 C 57.9403 49.927 57.9454 49.9926 57.953 50.0607 C 57.9784 50.3541 58.0012 50.659 58.019 50.9781 C 58.0215 51.036 58.024 51.0965 58.0278 51.1544 C 58.0418 51.4207 58.0519 51.6961 58.0596 51.9778 C 58.0608 52.0782 58.0621 52.1773 58.0646 52.2776 C 58.0646 52.3021 58.0646 52.3291 58.0646 52.3548 C 57.6372 52.2622 57.1439 52.2159 56.5922 52.2995 C 56.5922 52.2995 53.9404 54.3633 53.5878 55.6191 C 53.4382 56.1453 53.3849 57.2596 53.371 58.3738 C 52.5872 58.8383 51.1402 59.977 48.4617 62.6133 C 47.6653 63.3956 44.1295 65.7515 44.1295 65.7515 L 43.9824 66.0436 C 42.0712 66.6354 39.9647 67.2787 39.0921 67.5154 C 37.3255 67.9928 36.1473 67.1578 35.2038 67.5154 C 34.259 67.8745 32.727 68.8304 32.727 68.8304 C 32.727 68.8304 27.5412 71.3407 27.072 71.3407 C 26.6002 71.3407 26.2451 70.1454 25.067 71.1027 C 23.8888 72.0587 21.885 77.4395 21.885 77.4395 C 21.885 77.4395 20.4697 79.1133 19.1761 80.4283 C 17.88 81.7433 18.4684 84.7335 18.4684 84.7335 C 18.4684 84.7335 15.1673 85.8091 14.3442 86.6467 C 14.1299 86.8616 13.4793 87.3621 12.6346 87.9874 C 12.244 87.8317 11.8534 87.7224 11.5135 87.7224 C 10.277 87.7224 1.085 92.3852 0.5536 93.6397 C 0.0235 94.8954 -0.5066 109.6031 0.9075 113.3692 C 2.3215 117.1353 7.4477 118.391 11.8686 119.6468 C 16.2871 120.9013 20.7068 121.6192 21.4158 120.9013 C 21.5793 120.734 21.9332 120.4265 22.4024 120.0366 C 22.41 120.0933 22.4151 120.1498 22.4202 120.2078 C 21.1888 121.0891 19.7798 122.1416 19.1761 122.7553 C 17.9954 123.9506 16.9352 127 16.9352 127 L 108.8592 127 ZM 49.6995 22.5585 C 49.6893 22.6152 49.6817 22.6679 49.6729 22.7232 C 49.7629 21.8136 49.8301 20.976 49.8618 20.3712 C 49.8643 21.0223 49.8276 21.7428 49.6995 22.5585 Z" fill="#ed462f"/>		</g>	</g></svg>