<?xml version="1.0" standalone="no"?><!-- Generator: Adobe Fireworks CS6, Export SVG Extension by Aaron Beall (http://fireworks.abeall.com) . Version: 0.6.1  --><!DOCTYPE svg PUBLIC "-//W3C//DTD SVG 1.1//EN" "http://www.w3.org/Graphics/SVG/1.1/DTD/svg11.dtd"><svg id="Untitled-%u30DA%u30FC%u30B8%201" viewBox="0 0 130 26" style="background-color:#ffffff00" version="1.1"	xmlns="http://www.w3.org/2000/svg" xmlns:xlink="http://www.w3.org/1999/xlink" xml:space="preserve"	x="0px" y="0px" width="130px" height="26px">	<g id="%u30EC%u30A4%u30E4%u30FC%201">		<g>			<path d="M 12.2694 2.9616 L 19.6066 2.9616 C 20.5399 2.9616 21.0226 2.4401 21.0226 1.4949 C 21.0226 1.0712 20.8938 0.0934 19.6066 0.0934 L 1.9159 0.0934 C 0.9827 0.0934 0.5 0.6149 0.5 1.5275 C 0.5 1.9512 0.5965 2.9616 1.9159 2.9616 L 9.2531 2.9616 L 9.2531 24.3938 C 9.2531 25.4497 9.8815 25.8656 10.7613 25.8656 C 11.1697 25.8656 12.2694 25.7697 12.2694 24.3938 L 12.2694 2.9616 L 12.2694 2.9616 Z" fill="#ff3f00"/>			<path d="M 28.2903 19.2223 L 39.5597 19.2223 L 41.8957 24.6205 C 42.2114 25.3676 42.4008 25.8656 43.3793 25.8656 C 44.0738 25.8656 45.0866 25.5059 45.0866 24.7311 C 45.0866 24.4267 44.9577 24.1223 44.7683 23.6796 L 36.4346 2.0795 C 36.1189 1.2534 35.6454 0 33.9092 0 C 32.2046 0 31.7627 1.2204 31.447 2.0795 L 23.0818 23.6796 C 22.8608 24.15 22.7661 24.4267 22.7661 24.7311 C 22.7661 25.4782 23.7131 25.8656 24.5023 25.8656 C 25.4177 25.8656 25.6703 25.3676 25.9859 24.6205 L 28.2903 19.2223 L 28.2903 19.2223 ZM 29.2689 16.4193 L 33.9408 3.5333 L 38.5812 16.4193 L 29.2689 16.4193 L 29.2689 16.4193 Z" fill="#ff3f00"/>			<path d="M 52.0443 24.3828 C 52.0443 25.771 53.08 25.8656 53.5674 25.8656 C 53.9634 25.8656 55.0605 25.8656 55.0605 24.3828 L 55.0605 1.478 C 55.0605 0.5316 54.5422 0 53.5369 0 C 53.1713 0 52.0443 0.0583 52.0443 1.478 L 52.0443 24.3828 L 52.0443 24.3828 Z" fill="#ff3f00"/>			<path d="M 81.3599 21.7327 L 68.4175 1.7935 C 67.7587 0.7524 67.2197 0 65.8323 0 C 63.6643 0 63.6643 1.8566 63.6643 2.6769 L 63.6643 24.4143 C 63.6643 25.4555 64.2927 25.8656 65.2039 25.8656 C 65.5181 25.8656 66.6806 25.8656 66.6806 24.4143 L 66.6806 4.1282 L 79.6177 24.0673 C 80.2765 25.1085 80.8156 25.8656 82.2082 25.8656 C 84.3762 25.8656 84.3762 24.0042 84.3762 23.1524 L 84.3762 1.4465 C 84.3762 0.3738 83.7478 0 82.868 0 C 81.894 0 81.3599 0.5 81.3599 1.4465 L 81.3599 21.7327 L 81.3599 21.7327 Z" fill="#ff3f00"/>			<path d="M 95.0686 11.5313 L 95.0686 4.2367 C 95.0686 3.17 95.4226 2.9616 96.2593 2.9616 L 106.2353 2.9616 C 107.1685 2.9616 107.6512 2.4401 107.6512 1.4949 C 107.6512 0.9734 107.4581 0.0934 106.2353 0.0934 L 95.2938 0.0934 C 92.0523 0.0934 92.0523 2.4727 92.0523 3.7206 L 92.0523 22.4016 C 92.0523 23.5555 92.0523 26 95.2938 26 L 106.6858 26 C 107.619 26 108.1017 25.5111 108.1017 24.5659 C 108.1017 24.1422 108.0052 23.1318 106.6858 23.1318 L 96.2593 23.1318 C 95.4226 23.1318 95.0686 22.9413 95.0686 21.9571 L 95.0686 14.3343 L 105.2055 14.3343 C 106.0744 14.3343 106.5892 13.8454 106.5892 12.9002 C 106.5892 12.5417 106.4927 11.5313 105.2055 11.5313 L 95.0686 11.5313 L 95.0686 11.5313 Z" fill="#ff3f00"/>			<path d="M 122.6305 14.2676 C 128.3544 13.6003 128.8886 8.9096 128.8886 7.2151 C 128.8886 4.6573 127.7888 2.2772 125.5015 1.006 C 124.0802 0.1586 123.4729 0.0934 122.0801 0.0934 L 118.7828 0.0934 C 115.5392 0.0934 114.6115 2.4727 114.6115 3.6662 L 114.6115 24.4403 C 114.6115 25.4222 115.1828 25.8656 116.1349 25.8656 C 116.4841 25.8656 117.6277 25.8656 117.6277 24.4403 L 117.6277 14.3343 L 119.6743 14.3343 L 126.5321 24.8521 C 126.9719 25.4856 127.2233 25.8656 127.8517 25.8656 C 128.5743 25.8656 129.5 25.3271 129.5 24.5037 C 129.5 24.1236 129.3069 23.7435 128.8571 23.1417 L 122.6305 14.2676 L 122.6305 14.2676 ZM 117.6277 11.5313 L 117.6277 4.1457 C 117.6277 3.1546 117.9404 2.9616 118.7079 2.9616 L 120.8398 2.9616 C 122.4316 2.9616 125.8722 2.9616 125.8722 7.247 C 125.8722 11.5313 121.9768 11.5313 120.8398 11.5313 L 117.6277 11.5313 L 117.6277 11.5313 Z" fill="#ff3f00"/>		</g>	</g></svg>